<svg width="32" height="32" viewBox="0 0 32 32" fill="none" xmlns="http://www.w3.org/2000/svg">
  <!-- Pizza crust -->
  <path d="M2 30 L30 30 A28 28 0 0 0 2 2 Z" fill="#D4A574"/>
  
  <!-- Pizza sauce/base -->
  <path d="M3.5 28.5 L28.5 28.5 A26.5 26.5 0 0 0 3.5 3.5 Z" fill="#8B1538"/>
  
  <!-- Cheese base -->
  <path d="M4.5 27.5 L27.5 27.5 A25.5 25.5 0 0 0 4.5 4.5 Z" fill="#F4D03F"/>
  
  <!-- Pepperoni slices -->
  <circle cx="8" cy="12" r="2.5" fill="#B71C1C"/>
  <circle cx="16" cy="8" r="2" fill="#B71C1C"/>
  <circle cx="22" cy="14" r="2.5" fill="#B71C1C"/>
  <circle cx="12" cy="20" r="2" fill="#B71C1C"/>
  <circle cx="20" cy="22" r="1.8" fill="#B71C1C"/>
  
  <!-- Green peppers -->
  <ellipse cx="14" cy="14" rx="1.5" ry="3" fill="#7CB342" transform="rotate(45 14 14)"/>
  <ellipse cx="24" cy="18" rx="1.2" ry="2.5" fill="#7CB342" transform="rotate(-30 24 18)"/>
  
  <!-- Cheese pieces -->
  <rect x="10" y="10" width="1.5" height="1.5" fill="#FFD54F" transform="rotate(45 10.75 10.75)"/>
  <rect x="18" y="12" width="1.2" height="1.2" fill="#FFD54F" transform="rotate(30 18.6 12.6)"/>
  <rect x="15" y="18" width="1.3" height="1.3" fill="#FFD54F" transform="rotate(60 15.65 18.65)"/>
  <rect x="22" y="20" width="1.1" height="1.1" fill="#FFD54F" transform="rotate(15 22.55 20.55)"/>
  <rect x="8" y="16" width="1.2" height="1.2" fill="#FFD54F" transform="rotate(75 8.6 16.6)"/>
  <rect x="12" y="24" width="1" height="1" fill="#FFD54F" transform="rotate(45 12.5 24.5)"/>
  <rect x="6" y="8" width="1.1" height="1.1" fill="#FFD54F" transform="rotate(30 6.55 8.55)"/>
  <rect x="26" y="24" width="0.8" height="0.8" fill="#FFD54F" transform="rotate(60 26.4 24.4)"/>
</svg>
